<svg width="18" height="18" viewBox="0 0 18 18" fill="none" xmlns="http://www.w3.org/2000/svg">
<path d="M4.04999 1.57495H13.95C14.775 1.57495 15.45 2.24995 15.45 3.07495V4.72495C15.45 5.32495 15.075 6.07495 14.7 6.44995L11.475 9.29995C11.025 9.67495 10.725 10.425 10.725 11.025V14.25C10.725 14.7 10.425 15.3 10.05 15.525L8.99999 16.2C8.02499 16.8 6.67499 16.125 6.67499 14.925V10.95C6.67499 10.425 6.37499 9.74995 6.07499 9.37495L3.22499 6.37495C2.84999 5.99995 2.54999 5.32495 2.54999 4.87495V3.14995C2.54999 2.24995 3.22499 1.57495 4.04999 1.57495Z" stroke="#FEFEFE" stroke-width="1.5" stroke-miterlimit="10" stroke-linecap="round" stroke-linejoin="round"/>
<path d="M8.1975 1.57495L4.5 7.49995" stroke="#FEFEFE" stroke-width="1.5" stroke-miterlimit="10" stroke-linecap="round" stroke-linejoin="round"/>
</svg>
